<svg xmlns="http://www.w3.org/2000/svg" width="38" height="32" viewBox="0 0 38 32" fill="none">
  <path fill-rule="evenodd" clip-rule="evenodd" d="M24.9118 32H34.2538C35.9727 32 37.3677 30.8053 37.3677 29.3333V21.3333C37.3677 20.8427 36.9027 20.4444 36.3298 20.4444C35.7568 20.4444 35.2918 20.8427 35.2918 21.3333V29.3333C35.2918 29.824 34.8267 30.2222 34.2538 30.2222H24.9118C24.3389 30.2222 23.8738 30.6204 23.8738 31.1111C23.8738 31.6018 24.3389 32 24.9118 32ZM0 21.3333V29.3333C0 30.8053 1.39506 32 3.11398 32H12.4559C13.0289 32 13.4939 31.6018 13.4939 31.1111C13.4939 30.6204 13.0289 30.2222 12.4559 30.2222H3.11398C2.54101 30.2222 2.07599 29.824 2.07599 29.3333V21.3333C2.07599 20.8427 1.61096 20.4444 1.03799 20.4444C0.465021 20.4444 0 20.8427 0 21.3333ZM2.07599 10.6667V2.66667C2.07599 2.176 2.54101 1.77778 3.11398 1.77778H12.4559C13.0289 1.77778 13.4939 1.37956 13.4939 0.888889C13.4939 0.398222 13.0289 0 12.4559 0H3.11398C1.39506 0 0 1.19467 0 2.66667V10.6667C0 11.1573 0.465021 11.5556 1.03799 11.5556C1.61096 11.5556 2.07599 11.1573 2.07599 10.6667ZM24.9118 1.77778H34.2538C34.8267 1.77778 35.2918 2.176 35.2918 2.66667V10.6667C35.2918 11.1573 35.7568 11.5556 36.3298 11.5556C36.9027 11.5556 37.3677 11.1573 37.3677 10.6667V2.66667C37.3677 1.19467 35.9727 0 34.2538 0H24.9118C24.3389 0 23.8738 0.398222 23.8738 0.888889C23.8738 1.37956 24.3389 1.77778 24.9118 1.77778Z" fill="#403E3E"/>
</svg>