<svg xmlns="http://www.w3.org/2000/svg" width="24" height="25" viewBox="0 0 24 25" fill="none">
  <path d="M23.869 12.0145C23.869 12.4207 23.5332 12.7498 23.119 12.7498H16.3997C16.0755 12.7498 15.788 12.5457 15.687 12.2437L15.2155 10.8337L13.0995 16.5373C12.9913 16.8285 12.709 17.0214 12.395 17.0214C12.3873 17.0214 12.3795 17.0214 12.3713 17.0212C12.0475 17.0111 11.7668 16.7986 11.6753 16.4939L10.4855 12.5351L9.3905 14.1187C9.2275 14.3545 8.939 14.4768 8.653 14.4324C8.366 14.3881 8.13075 14.1851 8.04975 13.9116L7.23875 11.1817L6.57125 12.3697C6.43925 12.6045 6.1875 12.7501 5.91425 12.7501H0.75C0.33575 12.7501 0 12.4209 0 12.0148C0 11.6087 0.33575 11.2795 0.75 11.2795H5.47125L6.797 8.92042C6.9435 8.66013 7.233 8.51209 7.5365 8.54444C7.83775 8.57704 8.08925 8.78439 8.174 9.06968L9.044 11.9989L10.1353 10.4207C10.2983 10.1851 10.5878 10.0636 10.8715 10.1067C11.158 10.1506 11.3935 10.3525 11.4755 10.6256L12.4695 13.9332L14.5475 8.33169C14.657 8.03709 14.9402 7.8339 15.2642 7.84787C15.584 7.85302 15.8653 8.0562 15.965 8.354L16.943 11.2795H23.1187C23.5332 11.2792 23.869 11.6084 23.869 12.0145ZM22.11 13.8998C21.7448 13.7062 21.2905 13.8403 21.0938 14.1979C19.391 17.292 16.3958 19.989 12.191 22.214C12.144 22.239 12.0852 22.2388 12.0395 22.2143C7.834 19.989 4.8385 17.292 3.136 14.1976C2.939 13.8403 2.48475 13.7064 2.11975 13.8996C1.75525 14.0925 1.61925 14.5383 1.81575 14.8957C3.65975 18.2466 6.85975 21.1444 11.3275 23.5084C11.5688 23.6359 11.8412 23.7033 12.115 23.7033C12.3888 23.7033 12.6613 23.6359 12.9028 23.5082C17.37 21.1447 20.57 18.2471 22.414 14.8959C22.6105 14.5386 22.4745 14.0927 22.11 13.8998ZM16.8085 1.98047C14.9648 1.98047 13.33 2.68464 12.115 3.98316C10.9 2.68464 9.26525 1.98047 7.42125 1.98047C3.38875 1.98047 0.22975 5.21552 0.23 9.36135L0.231 9.40571C0.23975 9.8116 0.589 10.1317 0.99675 10.1251C1.41075 10.1163 1.7395 9.77998 1.7305 9.3741L1.72975 9.34542C1.72975 6.04027 4.22975 3.45106 7.42125 3.45106C9.56 3.45106 10.8177 4.60841 11.4965 5.57949C11.6365 5.77949 11.8677 5.8991 12.1152 5.8991C12.3628 5.8991 12.594 5.77949 12.734 5.57949C13.4128 4.60841 14.6705 3.45106 16.809 3.45106C20 3.45106 22.5 6.04027 22.5002 9.33022L22.4993 9.37655C22.4908 9.78267 22.8193 10.1185 23.2337 10.127C23.239 10.127 23.2443 10.127 23.2493 10.127C23.6562 10.127 23.9905 9.80767 23.9988 9.40694L24 9.34542C24 5.21552 20.841 1.98047 16.8085 1.98047Z" fill="#868788"/>
</svg>