<svg xmlns="http://www.w3.org/2000/svg" width="24" height="24" viewBox="0 0 24 24" fill="none">
  <path d="M23.869 11.995C23.869 12.4011 23.5332 12.7303 23.119 12.7303H16.3997C16.0755 12.7303 15.788 12.5261 15.687 12.2242L15.2155 10.8141L13.0995 16.5178C12.9913 16.809 12.709 17.0019 12.395 17.0019C12.3873 17.0019 12.3795 17.0019 12.3713 17.0016C12.0475 16.9916 11.7668 16.7791 11.6753 16.4744L10.4855 12.5156L9.3905 14.0992C9.2275 14.335 8.939 14.4573 8.653 14.4129C8.366 14.3685 8.13075 14.1656 8.04975 13.8921L7.23875 11.1622L6.57125 12.3502C6.43925 12.585 6.1875 12.7305 5.91425 12.7305H0.75C0.33575 12.7305 0 12.4014 0 11.9953C0 11.5891 0.33575 11.26 0.75 11.26H5.47125L6.797 8.90089C6.9435 8.64059 7.233 8.49255 7.5365 8.52491C7.83775 8.55751 8.08925 8.76486 8.174 9.05015L9.044 11.9793L10.1353 10.4011C10.2983 10.1656 10.5878 10.044 10.8715 10.0872C11.158 10.131 11.3935 10.333 11.4755 10.606L12.4695 13.9136L14.5475 8.31216C14.657 8.01755 14.9402 7.81437 15.2642 7.82834C15.584 7.83349 15.8653 8.03667 15.965 8.33447L16.943 11.26H23.1187C23.5332 11.2597 23.869 11.5889 23.869 11.995ZM22.11 13.8803C21.7448 13.6867 21.2905 13.8207 21.0938 14.1783C19.391 17.2725 16.3958 19.9695 12.191 22.1945C12.144 22.2195 12.0852 22.2193 12.0395 22.1948C7.834 19.9695 4.8385 17.2725 3.136 14.1781C2.939 13.8207 2.48475 13.6869 2.11975 13.8801C1.75525 14.0729 1.61925 14.5188 1.81575 14.8761C3.65975 18.2271 6.85975 21.1249 11.3275 23.4889C11.5688 23.6163 11.8412 23.6837 12.115 23.6837C12.3888 23.6837 12.6613 23.6163 12.9028 23.4886C17.37 21.1252 20.57 18.2276 22.414 14.8764C22.6105 14.519 22.4745 14.0732 22.11 13.8803ZM16.8085 1.96094C14.9648 1.96094 13.33 2.6651 12.115 3.96363C10.9 2.6651 9.26525 1.96094 7.42125 1.96094C3.38875 1.96094 0.22975 5.19599 0.23 9.34182L0.231 9.38618C0.23975 9.79206 0.589 10.1122 0.99675 10.1055C1.41075 10.0967 1.7395 9.76045 1.7305 9.35457L1.72975 9.32589C1.72975 6.02074 4.22975 3.43153 7.42125 3.43153C9.56 3.43153 10.8177 4.58888 11.4965 5.55996C11.6365 5.75996 11.8677 5.87957 12.1152 5.87957C12.3628 5.87957 12.594 5.75996 12.734 5.55996C13.4128 4.58888 14.6705 3.43153 16.809 3.43153C20 3.43153 22.5 6.02074 22.5002 9.31069L22.4993 9.35702C22.4908 9.76314 22.8193 10.0989 23.2337 10.1075C23.239 10.1075 23.2443 10.1075 23.2493 10.1075C23.6562 10.1075 23.9905 9.78814 23.9988 9.38741L24 9.32589C24 5.19599 20.841 1.96094 16.8085 1.96094Z" fill="url(#paint0_linear_3217_3702)"/>
  <defs>
    <linearGradient id="paint0_linear_3217_3702" x1="-2.36395e-07" y1="3.99745" x2="21.8988" y2="32.5059" gradientUnits="userSpaceOnUse">
      <stop stop-color="#25D366"/>
      <stop offset="1" stop-color="#03C0FF"/>
    </linearGradient>
  </defs>
</svg>