<svg xmlns="http://www.w3.org/2000/svg" width="24" height="24" viewBox="0 0 24 24" fill="none">
  <path d="M23.869 11.1556C23.869 11.5699 23.5332 11.9056 23.119 11.9056H16.3997C16.0755 11.9056 15.788 11.6974 15.687 11.3894L15.2155 9.95115L13.0995 15.7689C12.9913 16.0659 12.709 16.2626 12.395 16.2626C12.3873 16.2626 12.3795 16.2626 12.3713 16.2624C12.0475 16.2521 11.7668 16.0354 11.6753 15.7246L10.4855 11.6866L9.3905 13.3019C9.2275 13.5424 8.939 13.6671 8.653 13.6219C8.366 13.5766 8.13075 13.3696 8.04975 13.0906L7.23875 10.3061L6.57125 11.5179C6.43925 11.7574 6.1875 11.9059 5.91425 11.9059H0.75C0.33575 11.9059 0 11.5701 0 11.1559C0 10.7416 0.33575 10.4059 0.75 10.4059H5.47125L6.797 7.99965C6.9435 7.73415 7.233 7.58315 7.5365 7.61615C7.83775 7.6494 8.08925 7.8609 8.174 8.1519L9.044 11.1396L10.1353 9.5299C10.2983 9.28965 10.5878 9.16565 10.8715 9.20965C11.158 9.2544 11.3935 9.4604 11.4755 9.7389L12.4695 13.1126L14.5475 7.39915C14.657 7.09865 14.9402 6.8914 15.2642 6.90565C15.584 6.9109 15.8653 7.11815 15.965 7.4219L16.943 10.4059H23.1187C23.5332 10.4056 23.869 10.7414 23.869 11.1556ZM22.11 13.0786C21.7448 12.8811 21.2905 13.0179 21.0938 13.3826C19.391 16.5386 16.3958 19.2896 12.191 21.5591C12.144 21.5846 12.0852 21.5844 12.0395 21.5594C7.834 19.2896 4.8385 16.5386 3.136 13.3824C2.939 13.0179 2.48475 12.8814 2.11975 13.0784C1.75525 13.2751 1.61925 13.7299 1.81575 14.0944C3.65975 17.5124 6.85975 20.4681 11.3275 22.8794C11.5688 23.0094 11.8412 23.0781 12.115 23.0781C12.3888 23.0781 12.6613 23.0094 12.9028 22.8791C17.37 20.4684 20.57 17.5129 22.414 14.0946C22.6105 13.7301 22.4745 13.2754 22.11 13.0786ZM16.8085 0.920898C14.9648 0.920898 13.33 1.63915 12.115 2.96365C10.9 1.63915 9.26525 0.920898 7.42125 0.920898C3.38875 0.920898 0.22975 4.22065 0.23 8.4494L0.231 8.49465C0.23975 8.90865 0.589 9.23515 0.99675 9.2284C1.41075 9.2194 1.7395 8.8764 1.7305 8.4624L1.72975 8.43315C1.72975 5.0619 4.22975 2.4209 7.42125 2.4209C9.56 2.4209 10.8177 3.6014 11.4965 4.5919C11.6365 4.7959 11.8677 4.9179 12.1152 4.9179C12.3628 4.9179 12.594 4.7959 12.734 4.5919C13.4128 3.6014 14.6705 2.4209 16.809 2.4209C20 2.4209 22.5 5.0619 22.5002 8.41765L22.4993 8.4649C22.4908 8.87915 22.8193 9.22165 23.2337 9.2304C23.239 9.2304 23.2443 9.2304 23.2493 9.2304C23.6562 9.2304 23.9905 8.90465 23.9988 8.4959L24 8.43315C24 4.22065 20.841 0.920898 16.8085 0.920898Z" fill="#403E3E"/>
</svg>