<svg xmlns="http://www.w3.org/2000/svg" width="88" height="107" viewBox="0 0 88 107" fill="none">
  <path opacity="0.2" d="M2.95311 88.3512C-0.429533 82.6727 -0.279872 74.9565 3.31232 69.4125C4.87891 67.0024 7.05419 64.9234 7.93228 62.1617C9.60863 56.8659 5.9965 51.539 4.21039 46.2846C1.50627 38.3409 3.08284 29.2283 7.32361 22.0396C11.5644 14.8509 18.2299 9.45167 25.514 5.70736C36.9991 -0.198734 50.9088 -2.14329 62.7032 3.05944C74.4976 8.26218 83.2186 21.6259 81.1132 34.731C80.245 40.1509 77.6906 45.3227 77.9501 50.8047C78.3093 58.2105 83.6576 64.2511 85.9028 71.295C88.7466 80.211 86.0524 90.7509 79.347 97.0707C72.6316 103.391 62.2841 105.159 53.9522 101.456C50.6993 100.008 47.6459 97.7845 44.1136 97.4535C40.3219 97.1018 36.8494 98.9016 33.2871 99.9049C28.5175 101.25 26.3822 100.391 22.1414 98.2292C15.1865 94.6918 7.75268 96.4191 2.95311 88.3512Z" fill="url(#paint0_linear_3170_13894)"/>
  <path d="M57.2753 73.7043C56.8762 74.6663 56.3274 75.5558 55.9981 76.5488C55.7886 77.1901 55.6788 77.8624 55.4094 78.4727C55.1599 79.0209 54.7907 79.4967 54.3317 79.8794C53.8727 80.2621 53.3239 80.531 52.7552 80.6551C50.8094 81.0585 48.5743 79.8897 46.9179 81.0171C46.848 81.0689 46.7881 81.1102 46.7183 81.1723C46.399 81.4205 46.1296 81.7309 45.8003 81.9688C44.3834 83.0134 42.4077 82.517 40.8311 81.7412C39.2645 80.9654 37.7079 79.9104 35.9617 79.9311C35.353 79.9414 34.7344 80.0862 34.1357 80.0138C33.0281 79.9001 32.1001 79.1243 31.4016 78.2451C28.5179 74.6249 28.907 68.5637 31.5413 64.9124C32.0202 64.2401 32.5691 63.5885 32.7387 62.7817C32.8984 62.0059 32.6788 61.1888 32.7986 60.4027C32.9582 59.3167 33.7365 58.4685 34.3652 57.5893C35.1634 56.4826 35.7721 55.231 36.1712 53.9071C36.301 53.4623 36.4107 53.0175 36.5005 52.5727C36.7899 51.0212 36.8298 49.3249 37.7877 48.1044C39.4242 46.0357 42.9864 45.6013 45.3712 46.0564C48.0754 46.5943 50.55 47.8561 51.438 50.7833C51.8871 52.2728 51.8272 53.8657 51.927 55.4068C52.0267 56.9583 52.3361 58.5926 53.3638 59.7201C53.8428 60.2476 54.4614 60.651 54.7708 61.2819C55.2697 62.2852 54.8606 63.4747 54.8007 64.6021C54.7708 65.109 54.8107 65.6261 54.9204 66.133C55.0701 66.7846 55.3396 67.4155 55.7187 67.9534C55.8285 68.1086 55.9382 68.2534 56.048 68.3982C56.6267 69.1222 57.3152 69.7739 57.6046 70.6531C57.9239 71.6564 57.6745 72.7528 57.2753 73.7043Z" fill="#403E3E"/>
  <path d="M56.0482 68.3993C56.0482 68.4199 56.0482 68.451 56.0382 68.4717C55.8785 69.3095 55.4195 70.0439 55.0503 70.8093C53.9028 73.1469 53.5436 75.8776 54.0325 78.4427C54.1223 78.9185 54.2421 79.4047 54.3319 79.8908C53.8729 80.2735 53.3241 80.5424 52.7553 80.6666C50.8096 81.07 48.5744 79.9012 46.918 81.0286C46.8482 81.0803 46.7883 81.1217 46.7184 81.1837C46.3592 79.5081 46.5787 77.6877 46.9679 75.9913C47.0278 75.7328 47.0677 75.4121 46.8581 75.2569C46.7284 75.1639 46.5688 75.1845 46.4091 75.1845C45.2716 75.1949 44.2737 74.2743 43.8547 73.1779C43.4356 72.0815 43.4855 70.861 43.6651 69.6922C43.8347 68.5337 44.1141 67.3753 44.1341 66.1961C44.144 64.4274 43.5254 62.6794 43.705 60.921C43.8746 59.2143 44.8126 57.6111 46.1796 56.6698C46.5788 56.3905 48.1753 55.4907 48.6143 56.0182C48.8638 56.3181 48.315 58.0248 48.285 58.4489C48.1753 60.2073 48.5545 62.0587 49.672 63.4344C50.8395 64.8722 52.6256 65.6272 54.3917 66.0099C54.5614 66.041 54.741 66.0823 54.9007 66.134C55.0503 66.7857 55.3197 67.4166 55.6989 67.9545C55.8186 68.1096 55.9384 68.2544 56.0482 68.3993Z" fill="#403E3E"/>
  <path d="M63.372 96.067C58.2132 98.0943 51.8571 99.7803 46.7981 100.566C46.1395 100.887 41.9985 105.521 39.4041 101.135C39.3043 100.959 39.2046 100.773 39.1048 100.566C37.8974 100.38 36.6302 100.142 35.313 99.863C30.4336 98.8184 25.0054 97.1737 20.7447 95.3223C15.9451 93.2329 12.6224 90.8643 13.2111 88.7232C13.7 86.9234 17.6215 86.3028 22.5807 86.3028C29.4757 86.2925 38.3963 87.4406 42.9464 88.0922C46.6284 87.5647 53.1742 86.7062 59.2111 86.4166C65.9664 86.0753 72.0631 86.4476 72.6917 88.7335C73.3503 91.1125 69.1095 93.8018 63.372 96.067Z" fill="#25D366"/>
  <path d="M36.0567 87.0158C36.1481 87.0521 36.2742 87.1006 36.4318 87.1576C36.7909 87.2874 37.3138 87.461 37.9652 87.6347C39.2689 87.9824 41.0826 88.3296 43.1257 88.3296C45.1846 88.3296 46.8928 88.2238 48.2266 87.9982C49.4762 87.7869 50.3663 87.4753 50.9116 87.0727C50.5615 85.3738 50.2616 82.6492 50.3295 79.702M36.0567 87.0158L50.5795 79.705M36.0567 87.0158C36.5731 83.3093 36.3314 78.9637 35.5905 76.6699L35.5905 76.6699L35.5894 76.6665C35.4568 76.2755 35.3114 75.9287 35.1614 75.6622L35.1615 75.6621L35.1567 75.6543C35.0721 75.516 34.9793 75.3763 34.8897 75.2414C34.8404 75.1673 34.7921 75.0946 34.7468 75.0245C34.6145 74.8201 34.4958 74.6213 34.4041 74.4122L34.4034 74.4105C33.8781 73.2355 34.1919 71.833 34.6313 70.5076C34.6531 70.4452 34.6719 70.3813 34.6886 70.3243L34.6894 70.3215C34.7072 70.2609 34.7229 70.2077 34.7403 70.158L34.7427 70.1512L34.7447 70.1442C34.9295 69.5006 35.0287 68.8705 35.1162 68.2524C35.1289 68.1627 35.1413 68.0734 35.1537 67.9844C35.2274 67.4554 35.2998 66.9355 35.4171 66.4057L35.4174 66.4043C35.4967 66.0366 35.6893 65.8017 35.9546 65.6349C36.23 65.4619 36.5879 65.3601 36.9934 65.284C37.1121 65.2635 37.2345 65.2439 37.3568 65.2242C37.5288 65.1966 37.7008 65.169 37.8627 65.139L37.8627 65.139L37.8649 65.1386C38.0261 65.1073 38.1798 65.0774 38.3129 65.0577L38.3129 65.0578L38.3188 65.0568C38.9111 64.9545 39.5289 64.8945 40.0373 64.8452C40.0847 64.8406 40.1311 64.8361 40.1765 64.8317C40.6113 64.7898 40.9456 64.7605 41.1001 64.7605H41.1162L41.1322 64.7584C41.1761 64.7527 41.212 64.747 41.2375 64.7426C41.2423 64.7418 41.2467 64.741 41.2507 64.7403C41.2575 64.739 41.2632 64.738 41.2678 64.7371L41.2765 64.7354L41.2792 64.7349L41.2801 64.7347L41.2804 64.7346L41.2806 64.7346L41.2806 64.7346L41.2806 64.7346L41.2298 64.4898L41.2807 64.7345L41.4014 64.7095L41.455 64.5984C41.4701 64.567 41.4776 64.5323 41.4782 64.5293L41.4783 64.5291C41.4813 64.5162 41.4843 64.5015 41.4871 64.4873C41.4928 64.4584 41.4991 64.4233 41.5048 64.3904C41.5106 64.3571 41.516 64.3247 41.52 64.3007L41.5247 64.2717L41.5261 64.2636L41.5264 64.2614L41.5265 64.2608L41.5265 64.2607L41.5265 64.2606L41.5265 64.2606L41.2797 64.2209L41.5265 64.2606L41.5297 64.2409V64.2375L41.533 64.216C41.537 64.1911 41.5427 64.1562 41.5497 64.1142C41.5637 64.0303 41.5823 63.9201 41.601 63.8103L41.6524 63.5097L41.6693 63.4111L41.6741 63.3835L41.6753 63.3762L41.6756 63.3744L41.6757 63.3744L41.6757 63.3739L41.6758 63.3738L41.6758 63.3738L42.3143 59.7232L42.3159 59.7136L42.3169 59.7039C42.3701 59.1484 42.7263 58.7916 43.2655 58.56C43.8121 58.3252 44.5104 58.2386 45.1472 58.2234C45.5855 58.2133 45.9833 58.2335 46.2716 58.2563C46.3623 58.2634 46.4419 58.2708 46.5084 58.2776L46.2486 64.5415L46.2484 64.5415V64.5518C46.2484 64.6444 46.2945 64.7102 46.3316 64.7463C46.3669 64.7807 46.4052 64.8003 46.4314 64.8115C46.4826 64.8334 46.5398 64.8447 46.5935 64.8512C46.7038 64.8687 46.8655 64.8794 47.0576 64.8906C47.1034 64.8933 47.1516 64.896 47.2021 64.8989C47.3736 64.9086 47.5721 64.9198 47.798 64.9357L47.798 64.9357L47.8019 64.9359C47.9516 64.9441 48.1205 64.9589 48.3087 64.9754C48.3523 64.9793 48.3969 64.9832 48.4426 64.9871L48.4533 64.988H48.4641L48.4812 64.9881L48.4825 64.9882L48.5006 64.9944L48.5305 64.9973C48.5847 65.0024 48.6365 65.0075 48.689 65.0127L48.6892 65.0127C48.741 65.0178 48.7933 65.023 48.8481 65.0281C49.0164 65.0462 49.1894 65.0605 49.3645 65.075C49.8204 65.1128 50.2907 65.1518 50.7287 65.2599C51.1027 65.3532 51.4138 65.4879 51.643 65.6815C51.8664 65.8702 52.023 66.1236 52.0786 66.483L52.0788 66.4839C52.2072 67.2925 52.1348 68.135 51.98 68.9858C51.8763 69.5555 51.739 70.1142 51.6033 70.6664C51.5348 70.945 51.4668 71.2218 51.4037 71.4976C51.1525 72.5599 50.9718 73.6004 50.8314 74.6596C50.8248 74.6969 50.8216 74.734 50.8195 74.7596L50.8193 74.7618C50.8166 74.7939 50.8148 74.815 50.8116 74.8349L50.8115 74.8349L50.8106 74.8417C50.6203 76.2749 50.5001 77.7174 50.3806 79.1633M36.0567 87.0158L50.6294 79.1878M50.3295 79.702C50.3295 79.701 50.3295 79.7001 50.3296 79.6992L50.5795 79.705M50.3295 79.702C50.3295 79.703 50.3295 79.704 50.3295 79.705H50.5795M50.3295 79.702C50.3298 79.556 50.3489 79.4095 50.3658 79.2803C50.3712 79.2394 50.3763 79.2002 50.3806 79.1633M50.5795 79.705C50.5795 79.5759 50.5956 79.4523 50.6121 79.3262C50.6181 79.2805 50.6241 79.2345 50.6294 79.1878M50.3806 79.1633C50.3804 79.1646 50.3803 79.1659 50.3802 79.1672L50.6294 79.1878M50.3806 79.1633C50.3807 79.1621 50.3808 79.1608 50.381 79.1596L50.6294 79.1878" fill="#F5A784" stroke="black" stroke-width="0.5"/>
  <path d="M50.9994 74.3246C50.9871 74.3462 50.9756 74.3665 50.9648 74.3855C50.8478 74.3268 50.6835 74.2378 50.4859 74.1133C50.0687 73.8503 49.5038 73.4293 48.9221 72.8012C47.7616 71.5481 46.5239 69.4598 46.2689 66.1258C46.2355 65.6661 46.3746 65.3139 46.8126 64.7709C47.0552 64.471 47.3772 64.1281 47.7947 63.6834C48.0363 63.4261 48.3099 63.1347 48.6186 62.7979C49.4532 61.8873 50.523 60.6666 51.8551 58.9431L51.8551 58.9432L51.8576 58.9399C51.9504 58.8157 52.0556 58.7004 52.1721 58.5729C52.1944 58.5484 52.2172 58.5235 52.2403 58.498C52.3797 58.3444 52.529 58.1737 52.6558 57.974C54.038 55.8584 55.02 53.7911 55.6564 52.2531C55.9748 51.4836 56.207 50.8458 56.3599 50.3997C56.4363 50.1766 56.4929 50.0014 56.5306 49.8815C56.5494 49.8215 56.5634 49.7754 56.5729 49.7441L56.5835 49.7082L56.5863 49.6988L56.587 49.6963L56.5872 49.6956L56.5873 49.6954C56.5873 49.6953 56.5873 49.6953 56.3471 49.626L56.5873 49.6953L56.6212 49.578L56.5495 49.4792C56.1143 48.8793 55.1454 47.5275 54.1563 46.1476C53.0239 44.5678 51.865 42.951 51.4503 42.3832C50.8476 41.5537 50.3055 40.6943 49.7687 39.8202C49.6523 39.6308 49.5362 39.4406 49.4197 39.2498C49 38.5624 48.5759 37.8679 48.1247 37.1806C47.8779 36.8008 47.5828 36.4203 47.2921 36.0455C47.1988 35.9252 47.106 35.8055 47.0154 35.6866C46.6363 35.1893 46.2893 34.6985 46.0572 34.1927L46.0571 34.1925C45.6689 33.349 45.5936 32.2205 45.6259 31.0262C45.641 30.4662 45.6793 29.9014 45.7164 29.3537C45.7186 29.3212 45.7208 29.2888 45.723 29.2565C45.7619 28.6813 45.798 28.1247 45.8006 27.6268H45.8006V27.6255C45.8006 27.541 45.8034 27.508 45.8094 27.489C45.8132 27.4839 45.8255 27.4722 45.8616 27.4668C45.9096 27.4597 45.9599 27.4722 45.9888 27.491C46.0968 27.5666 46.1748 27.714 46.243 27.9058L46.2429 27.9058L46.245 27.9113C46.6355 28.9334 46.8897 30.0166 46.9976 31.1101L46.9982 31.1198C47.0175 31.4506 47.0391 31.8201 47.1593 32.1726C47.4299 33.0124 48.0105 33.8185 48.6444 34.5511C49.05 35.02 49.494 35.4764 49.9025 35.8963C50.1288 36.129 50.3443 36.3505 50.5364 36.5568L50.5375 36.558C51.9 38.0015 53.3315 39.3711 54.7693 40.7166L54.7703 40.7175C55.2434 41.1557 55.7431 41.5961 56.2489 42.0421C56.5446 42.3028 56.8424 42.5653 57.1382 42.8304L57.1404 42.8323C58.7359 44.2278 60.2985 45.6974 61.3854 47.3821C61.6812 47.8466 61.7813 48.6072 61.6823 49.6385C61.5844 50.6595 61.2964 51.8989 60.8696 53.2793C60.0165 56.039 58.6206 59.3249 57.1349 62.4851C55.65 65.6435 54.0791 68.6687 52.879 70.9047C52.2791 72.0226 51.7721 72.9429 51.4151 73.5836C51.2366 73.9039 51.0956 74.1543 50.9994 74.3246Z" fill="#F5A784" stroke="#403E3E" stroke-width="0.5"/>
  <path d="M39.7928 37.1807C39.8508 37.0915 39.9115 37.0023 39.9742 36.9131L39.929 36.8975L40.0179 36.8515C40.2128 36.5785 40.4253 36.3061 40.6354 36.0368C40.7272 35.9191 40.8186 35.802 40.9079 35.6856C41.2896 35.1882 41.6388 34.6976 41.8707 34.1923L41.8708 34.1921C42.2588 33.3489 42.3318 32.2208 42.297 31.0263C42.2808 30.4718 42.242 29.9125 42.2043 29.3696C42.2017 29.3318 42.1991 29.2941 42.1964 29.2565C42.1566 28.6812 42.1198 28.1245 42.1173 27.6264L42.1173 27.6251C42.1173 27.5395 42.1144 27.5068 42.1082 27.4879C42.1036 27.4804 42.0912 27.4676 42.0565 27.462C42.0139 27.4551 41.965 27.4657 41.9307 27.4895C41.8236 27.5634 41.7575 27.7029 41.6723 27.9124C41.2914 28.9358 41.0374 30.0198 40.9299 31.1133C40.9267 31.1493 40.9236 31.1859 40.9205 31.2229C40.8953 31.5234 40.8676 31.8542 40.77 32.1678L40.7689 32.1714L40.7688 32.1714C40.4936 33.011 39.913 33.8172 39.2785 34.5507C38.8606 35.0337 38.404 35.5015 37.9848 35.9309C37.7702 36.1508 37.5655 36.3605 37.3807 36.5572C36.1006 37.9235 34.7402 39.2148 33.3903 40.4962C33.3134 40.5692 33.2366 40.6421 33.1598 40.715L33.159 40.7158C32.6163 41.2262 32.0445 41.7253 31.4558 42.2321C31.3748 42.304 31.2936 42.3759 31.2124 42.4479C29.4837 43.9792 27.7123 45.5484 26.543 47.3808C26.3367 47.7049 26.2258 48.1812 26.2191 48.8097C26.2124 49.4346 26.3089 50.1854 26.4935 51.037C26.8626 52.7401 27.5762 54.8125 28.4746 57.024C30.2706 61.445 32.7901 66.385 34.7146 69.9665C35.5169 71.4594 36.2146 72.7146 36.7116 73.5965C36.9601 74.0375 37.1584 74.385 37.2945 74.6222C37.3241 74.6737 37.3507 74.72 37.3742 74.7609C37.4725 74.6936 37.6019 74.5995 37.7545 74.4759C38.1198 74.1801 38.6176 73.7158 39.1378 73.0473C40.1767 71.7121 41.3104 69.5555 41.6496 66.2837L41.6507 66.2729L41.6528 66.2621C41.6575 66.2381 41.6583 66.2109 41.6583 66.144V66.1311L41.6596 66.1183C41.7088 65.6426 41.5443 65.2864 41.0393 64.6924L41.0387 64.6917C40.806 64.416 40.5073 64.0967 40.1397 63.7036C39.2259 62.7267 37.886 61.294 36.073 58.9431M39.7928 37.1807C39.7928 37.1806 39.7929 37.1806 39.7929 37.1806L40.0024 37.3169L39.7928 37.1807ZM39.7928 37.1807C39.3606 37.8449 38.9575 38.5067 38.558 39.1625C37.8908 40.258 37.2338 41.3367 36.468 42.3823L36.4674 42.3831C36.1212 42.8599 35.1107 44.2684 34.057 45.7372C32.9899 47.2246 31.8785 48.7737 31.3682 49.479L31.2966 49.578L31.3306 49.6952L31.5707 49.6256M31.5707 49.6256C31.3306 49.6952 31.3307 49.6953 31.3307 49.6954L31.3307 49.6956L31.3309 49.6963L31.3317 49.6988L31.3345 49.7082L31.3452 49.7441C31.3547 49.7755 31.3689 49.8217 31.3878 49.8818C31.4257 50.0019 31.4826 50.1775 31.5595 50.401C31.7131 50.8479 31.9462 51.4866 32.2653 52.2567C32.903 53.7962 33.8852 55.864 35.2629 57.9749L35.2638 57.9762C35.3945 58.1739 35.5425 58.3433 35.6825 58.4976C35.7093 58.5271 35.7356 58.5559 35.7615 58.5842C35.8741 58.7073 35.9778 58.8208 36.073 58.9431M31.5707 49.6256C31.5707 49.6256 32.7382 53.6492 35.4723 57.8382L36.6697 42.53C36.3228 43.0078 35.3137 44.4142 34.2612 45.8814C33.1945 47.3683 32.083 48.9175 31.5707 49.6256ZM36.073 58.9431C36.0731 58.9432 36.0731 58.9433 36.0732 58.9434L36.2705 58.7899L36.0725 58.9425C36.0727 58.9427 36.0728 58.9429 36.073 58.9431Z" fill="#F5A784" stroke="#403E3E" stroke-width="0.5"/>
  <path d="M51.1981 87.1719C50.0307 88.1545 47.2666 88.5786 43.1356 88.5786C38.9946 88.5786 35.7916 87.1719 35.7916 87.1719C36.3404 83.4483 36.1009 79.0316 35.3626 76.7457C35.2328 76.363 35.0931 76.032 34.9534 75.7838C34.694 75.3597 34.3847 74.9666 34.1851 74.5115C33.6163 73.2393 33.9656 71.7499 34.4046 70.4259C34.4445 70.3121 34.4745 70.188 34.5144 70.0742C30.6628 62.9062 24.4164 50.2769 26.3521 47.2359C27.5994 45.2707 29.5153 43.6157 31.3114 42.0332C31.92 42.6435 34.3448 45.1259 34.6142 45.4052C33.6064 46.8015 32.6085 48.2186 31.5908 49.6149C31.5808 49.6356 32.7482 53.6489 35.4823 57.8379C35.7218 58.2 36.0311 58.4689 36.2805 58.7896C38.835 62.0788 40.4016 63.5372 41.2198 64.4991C41.4393 65.0577 41.6788 65.6782 41.9083 66.2989C42.3074 67.4366 42.6667 68.6054 42.7664 69.3088L46.5083 64.3336L46.4983 64.5612C46.4983 64.5819 46.5382 64.6026 46.628 64.6129C47.4163 63.651 49.0129 62.2132 51.6671 58.7896C51.9166 58.4689 52.2259 58.2 52.4554 57.8379C55.1994 53.6489 56.3569 49.6253 56.3569 49.6253C55.4289 48.3323 54.5009 47.0394 53.573 45.7362L57.3048 42.6331C58.9014 44.0398 60.4979 45.5189 61.5955 47.2359C64.3395 51.5388 51.0684 74.6977 51.0684 74.6977C51.0584 74.7495 51.0584 74.8115 51.0484 74.8736C50.8589 76.3009 50.7391 77.7387 50.6194 79.1868C50.6094 79.3626 50.5795 79.5281 50.5795 79.6936C50.5196 82.7242 50.8389 85.5066 51.1981 87.1719Z" fill="#03C0FF"/>
  <path d="M48.1749 54.1791L48.139 54.6743L48.5582 54.4082C48.7885 54.2621 48.9962 54.1894 49.1594 54.2088C49.2934 54.2247 49.4632 54.3117 49.6099 54.6644C49.8361 55.2243 49.6254 55.9473 49.1817 56.5876C48.9646 56.9009 48.7025 57.1771 48.4391 57.3815C48.1715 57.5891 47.9219 57.7078 47.7302 57.7354L47.5819 57.7567L47.5308 57.8974C46.3785 61.0661 43.6097 61.4751 42.1904 61.4051C40.7836 61.3329 38.5103 59.5248 38.9048 54.4544L38.9048 54.4541C38.9694 53.6094 39.0557 52.8391 39.1943 52.1911C39.334 51.5385 39.5215 51.0362 39.7722 50.708L39.7726 50.7075C40.9539 49.1534 42.7596 48.5875 44.399 48.7289C46.0526 48.8715 47.4631 49.7226 47.9108 50.9131C48.2008 51.689 48.274 52.8137 48.1749 54.1791Z" fill="#F5A784" stroke="black" stroke-width="0.5"/>
  <path d="M43.066 56.6895C42.8465 56.6481 42.3475 56.7515 42.2577 56.5033C42.1779 56.2964 42.587 55.1173 42.6469 54.9207C42.7068 54.7035 42.7766 54.4967 42.8365 54.3105C42.8165 54.3001 42.7966 54.2795 42.7766 54.2691C42.7267 54.2381 42.6868 54.2174 42.6369 54.207C42.3974 55.0138 42.2078 55.862 41.9883 56.6377C41.9684 56.7101 42.0183 56.7826 42.0881 56.7826C42.4074 56.7929 42.7167 56.8756 43.0261 56.8963C43.1358 56.886 43.1758 56.7102 43.066 56.6895Z" fill="#262626"/>
  <path d="M41.4989 52.5113C41.1996 52.3355 40.6308 52.2631 40.3913 52.5837C40.3514 52.6458 40.4013 52.7389 40.4612 52.7389C40.6108 52.7389 40.7505 52.6664 40.9102 52.6664C41.0798 52.6561 41.2295 52.7078 41.3891 52.7699C41.5288 52.8113 41.6286 52.5941 41.4989 52.5113Z" fill="#3B2645"/>
  <path d="M45.7102 53.2146C45.5606 52.7595 44.8022 52.6767 44.463 52.9353C44.3831 52.9974 44.423 53.1215 44.5028 53.1525C44.6924 53.2249 44.892 53.1629 45.0916 53.1836C45.2612 53.2042 45.4009 53.2973 45.5506 53.3594C45.6304 53.4008 45.7402 53.3077 45.7102 53.2146Z" fill="#3B2645"/>
  <path d="M43.5247 57.931C43.2154 58.0655 42.9859 58.2414 42.6266 58.231C42.3472 58.231 42.0579 58.0759 41.7984 58.1586C41.7585 58.1689 41.7286 58.2207 41.7485 58.262C41.9381 58.5827 42.457 58.6344 42.7763 58.6241C43.1255 58.6137 43.5446 58.4999 43.7442 58.169C43.834 58.0241 43.6744 57.869 43.5247 57.931Z" fill="#262626"/>
  <path d="M41.5987 54.2904C41.2495 54.4145 40.9202 54.5283 40.551 54.3939C40.3215 54.3111 40.1619 54.1146 39.9423 54.0215C39.9124 54.3421 40.2417 54.5387 40.4911 54.6317C40.8803 54.7765 41.3393 54.7248 41.7085 54.518C41.8182 54.4559 41.7384 54.2387 41.5987 54.2904Z" fill="#3B2645"/>
  <path d="M45.9695 54.6627C45.4805 54.8178 44.6623 55.1591 44.4029 54.4351C44.363 54.3213 44.2233 54.342 44.2033 54.4661C44.1534 54.8695 44.6324 55.0868 44.9517 55.1385C45.3408 55.2005 45.8198 55.1281 46.0693 54.7971C46.1092 54.7247 46.0293 54.642 45.9695 54.6627Z" fill="#3B2645"/>
  <path d="M48.5142 48.2183C47.9654 47.7631 47.3667 47.3598 46.7081 47.1219C45.6105 46.7495 44.4331 46.8943 43.2856 47.0288C42.0782 47.1736 40.8209 47.3287 39.7732 47.9597C38.8252 48.5389 37.4981 50.3076 38.3762 51.4868C39.2244 52.6349 41.3697 50.4731 41.9884 49.8215C42.2777 50.6386 43.2157 50.9903 44.0539 51.0523C44.8921 51.1144 45.7702 51.0006 46.5485 51.3213C47.0673 51.5385 47.4465 51.9832 47.8157 52.4073C47.9554 52.5728 48.1051 52.7486 48.2049 52.9452C48.3845 53.3072 48.4244 53.7209 48.4543 54.1243C48.604 53.8864 48.9033 53.8347 49.1728 53.814C49.4422 53.7934 49.7315 53.783 49.9411 53.5968C50.0908 53.4623 50.1506 53.2658 50.2105 53.0693C50.4001 52.397 50.2305 51.5695 50.2005 50.8765C50.1407 49.6456 49.4322 48.9733 48.5142 48.2183Z" fill="#403E3E"/>
  <path d="M41.9883 101.942L20.7545 95.3222C15.9549 93.2328 12.6321 90.8642 13.2209 88.7231C13.7098 86.9234 17.6312 86.3027 22.5905 86.3027C27.3002 88.0404 33.8759 92.7777 41.9883 101.942Z" fill="#25D366"/>
  <path d="M63.372 96.0676C58.9316 95.7263 54.9004 94.6609 54.9004 94.6609C54.9004 94.6609 59.8197 91.0407 59.221 86.4172C65.9763 86.0759 72.073 86.4482 72.7017 88.7341C73.3503 91.1131 69.1095 93.8024 63.372 96.0676Z" fill="#25D366"/>
  <path d="M64.5 100.161L64.4994 100.161C62.7419 101.118 60.1129 102.001 56.765 102.848C53.1525 103.756 48.7498 104.603 43.7633 105.43C42.6805 105.608 41.6546 105.807 40.7068 105.991C40.4436 106.042 40.1864 106.091 39.9356 106.139C38.7779 106.36 37.7617 106.54 36.911 106.61C36.0535 106.681 35.4032 106.638 34.9571 106.444C34.7396 106.349 34.5742 106.22 34.4541 106.052C34.3334 105.884 34.2487 105.662 34.2139 105.368C34.1586 104.897 34.4459 104.464 35.0796 104.056C35.7076 103.651 36.6087 103.319 37.6098 103.046C39.2007 102.613 40.9836 102.344 42.2065 102.161C42.5213 102.113 42.7989 102.072 43.0267 102.034L43.0276 102.034C43.2829 101.991 43.6267 101.848 44.0264 101.644C44.4331 101.437 44.9212 101.153 45.4729 100.81C47.4552 99.5772 50.3054 97.5443 53.2705 95.4295C53.602 95.1931 53.9348 94.9556 54.2681 94.7182C57.5898 92.3515 60.9503 89.9823 63.3387 88.5771C66.7123 86.6006 69.3578 86.9033 70.9786 87.4998L70.9787 87.4998C72.4282 88.0329 73.5955 89.5164 73.7192 91.367C73.8749 93.8256 72.2041 95.7038 70.1278 97.1459C68.6563 98.168 67.043 98.9325 65.807 99.5182C65.2939 99.7613 64.8459 99.9736 64.5 100.161Z" fill="#F5A784" stroke="black" stroke-width="0.5"/>
  <path d="M43.0267 102.034L43.0276 102.034C43.2829 101.991 43.6267 101.848 44.0264 101.644C44.4064 101.45 44.8576 101.19 45.3654 100.877C47.5349 101.737 51.2845 103 54.9601 103.286C51.7251 104.035 47.9466 104.736 43.7634 105.43C42.6806 105.608 41.6547 105.807 40.7068 105.99C40.4436 106.041 40.1864 106.091 39.9356 106.139C38.7779 106.36 37.7617 106.54 36.911 106.61C36.0535 106.681 35.4032 106.637 34.9571 106.443C34.7396 106.349 34.5742 106.22 34.4541 106.052C34.3334 105.884 34.2487 105.662 34.2139 105.368C34.1586 104.897 34.446 104.464 35.0796 104.056C35.7076 103.651 36.6087 103.319 37.6098 103.046C39.2007 102.612 40.9836 102.344 42.2066 102.16C42.5213 102.113 42.7989 102.071 43.0267 102.034Z" fill="#F6F6F6" stroke="black" stroke-width="0.5"/>
  <path d="M14.804 87.5108L14.8041 87.5108C16.4255 86.914 19.0707 86.6016 22.4438 88.588L22.444 88.5881C25.075 90.1336 28.8869 92.8514 32.524 95.4447C33.0083 95.79 33.4895 96.1331 33.9644 96.4709C35.9815 97.9058 37.884 99.2448 39.4197 100.247C40.1873 100.748 40.867 101.168 41.4256 101.474C41.9739 101.774 42.436 101.983 42.7569 102.035C42.9706 102.069 43.2288 102.107 43.5208 102.151C44.7411 102.331 46.5514 102.599 48.1641 103.039C49.1644 103.312 50.0651 103.645 50.6929 104.05C51.3261 104.46 51.6142 104.895 51.5587 105.369C51.5239 105.663 51.4392 105.884 51.3185 106.053C51.1984 106.221 51.0331 106.35 50.8155 106.444C50.3694 106.638 49.7192 106.682 48.8617 106.611C48.011 106.54 46.9948 106.361 45.837 106.14C45.5863 106.092 45.3291 106.042 45.0659 105.991C44.118 105.808 43.0921 105.609 42.0091 105.43L42.009 105.43C37.2024 104.64 32.9365 103.824 29.4095 102.953C25.8782 102.082 23.105 101.159 21.2733 100.162L21.2727 100.161C20.9265 99.9741 20.4781 99.7617 19.9646 99.5184C18.7289 98.9328 17.1163 98.1687 15.6461 97.1479C13.5709 95.7069 11.903 93.8314 12.0635 91.3783C12.187 89.5276 13.3544 88.044 14.804 87.5108Z" fill="#F5A784" stroke="black" stroke-width="0.5"/>
  <path d="M47.5957 74.7393C46.6577 76.2288 44.0833 75.4013 42.8261 75.091C42.7063 75.0599 42.6165 75.1944 42.6664 75.2979C43.1653 76.2701 44.5822 76.2391 45.5002 76.1874C46.5081 76.1357 47.5558 76.0219 48.1545 75.0807C48.394 74.7186 47.8252 74.3773 47.5957 74.7393Z" fill="#262626"/>
  <path d="M56.3474 49.6251C55.4194 48.3322 54.4915 47.0393 53.5635 45.736L54.9405 44.5879C55.6689 45.6429 56.6667 47.5461 56.3474 49.6251Z" fill="#403E3E"/>
  <path d="M34.6045 45.4058C33.5967 46.8022 32.5988 48.2192 31.5811 49.6156C31.6709 49.388 32.8782 46.2436 33.5568 44.3301C33.9559 44.7542 34.3351 45.1265 34.6045 45.4058Z" fill="#403E3E"/>
  <path d="M32.5288 29.1876C31.3813 29.1462 30.2138 29.4358 29.0763 29.622C27.7891 29.8289 26.452 29.953 25.2147 30.3874C24.9752 30.4701 25.0151 30.8425 25.2746 30.8529C26.4221 30.8942 27.5895 30.646 28.7171 30.4908C30.0043 30.3047 31.3713 30.2323 32.5986 29.7978C32.9179 29.6737 32.868 29.1979 32.5288 29.1876Z" fill="#747474"/>
  <path d="M35.4326 22.102C33.846 21.3366 32.5488 20.5195 31.1319 19.4334C29.9744 18.5439 28.7671 17.6543 27.3003 17.5095C27.0508 17.4889 26.941 17.9026 27.1705 18.006C28.7571 18.7404 30.0343 19.6713 31.4113 20.7677C32.5389 21.6676 33.7861 22.6813 35.243 22.8157C35.6022 22.8364 35.7519 22.2572 35.4326 22.102Z" fill="#747474"/>
  <path d="M43.4949 12.4098C43.3452 10.4135 43.3452 8.40685 43.1556 6.42091C43.1157 6.0589 42.6368 6.04855 42.6068 6.42091C42.4172 8.49994 42.5569 10.6514 42.6966 12.7407C42.8263 14.6336 42.9162 16.6195 43.3752 18.4606C43.475 18.8537 44.0836 18.7813 44.0736 18.3675C44.0138 16.3816 43.6446 14.3957 43.4949 12.4098Z" fill="#747474"/>
  <path d="M54.9503 14.7582C52.9646 16.32 50.9589 18.1404 49.2427 20.023C48.9832 20.3022 49.3325 20.8401 49.6618 20.5918C51.6874 19.092 53.703 17.2819 55.4691 15.4615C55.8084 15.1098 55.3494 14.4375 54.9503 14.7582Z" fill="#747474"/>
  <path d="M65.1978 29.0731C63.6012 28.5352 61.6854 28.649 60.019 28.5766C58.3527 28.5042 56.4867 28.2767 54.8702 28.7628C54.7106 28.8145 54.7106 29.0524 54.8702 29.1041C56.4867 29.6006 58.3427 29.4351 60.019 29.5282C61.7153 29.6109 63.5214 29.9833 65.1978 29.7454C65.547 29.6937 65.4772 29.1662 65.1978 29.0731Z" fill="#747474"/>
  <defs>
    <linearGradient id="paint0_linear_3170_13894" x1="0.513671" y1="9.73017" x2="108.316" y2="116.079" gradientUnits="userSpaceOnUse">
      <stop stop-color="#25D366"/>
      <stop offset="1" stop-color="#03C0FF"/>
    </linearGradient>
  </defs>
</svg>