<svg xmlns="http://www.w3.org/2000/svg" width="82" height="79" viewBox="0 0 82 79" fill="none">
  <mask id="mask0_3170_13931" style="mask-type:luminance" maskUnits="userSpaceOnUse" x="7" y="1" width="67" height="74">
    <path d="M74 40.5367C74 59.0367 59 74.0367 40.5 74.0367C22 74.0367 7 59.0367 7 40.5367C7 22.0367 22 1.88965 40.5 1.88965C59 1.88965 74 22.0367 74 40.5367Z" fill="white"/>
  </mask>
  <g mask="url(#mask0_3170_13931)">
    <path d="M32.2354 52.905C32.3309 53.9933 33.3677 61.8021 33.7942 67.2286C34.2206 72.655 36.7353 88.9271 36.7353 88.9271C36.7353 88.9271 39.728 90.4418 43.2721 87.6256C43.2721 87.6256 39.7427 66.5815 40.5515 59.1992V50.0889L32.2354 52.905Z" fill="#EDDCC6"/>
    <g opacity="0.3">
      <path d="M39.5588 89.28C40.6029 89.1477 41.8529 88.7212 43.1838 87.6845C42.7058 84.6771 40.375 69.6918 40.4338 61.7506C40.4338 60.7874 40.4706 59.9271 40.5514 59.1992V50.0889L36.0073 51.655C36.4853 57.4492 38.2867 80.2727 39.5588 89.28Z" fill="#EDDCC6"/>
    </g>
    <path d="M40.5518 58.8972C40.5518 58.8972 41.9268 63.4046 41.7282 69.0663C41.5297 74.7281 41.9268 91.2281 41.9268 91.2281C41.9268 91.2281 45.2209 93.1178 50.0076 91.2281C50.0076 91.2281 49.7282 70.0222 49.64 66.4561C49.5517 62.8899 49.64 51.1325 49.64 51.1325L40.5518 50.0811V58.8972Z" fill="#EDDCC6"/>
    <g opacity="0.3">
      <path d="M50.0075 91.2358C50.0075 91.2358 49.7281 70.0299 49.6399 66.4637C49.5516 62.8975 49.6399 51.1402 49.6399 51.1402L45.2722 50.6328C45.1472 57.6181 45.6766 87.1769 45.5222 92.074C46.7722 92.0961 48.2869 91.9122 50.0075 91.2358Z" fill="#EDDCC6"/>
    </g>
    <path d="M45.1031 17.375C45.1031 17.375 50.7943 19.0147 50.8531 19.4853C50.9119 19.9559 49.9119 27.875 49.7354 30.3382C49.559 32.8015 49.9855 44.3015 50.1619 46.1176C50.3384 47.9338 50.5149 53.3382 50.5149 53.3382C50.5149 53.3382 48.1104 53.8088 41.0884 53.9265V18.1765L45.1031 17.375Z" fill="#03C0FF"/>
    <path d="M37.0809 17.375C37.0809 17.375 31.3897 19.0147 31.3309 19.4853C31.272 19.9559 32.272 27.875 32.4485 30.3382C32.625 32.8015 31.8603 44.1838 31.6838 46.0074C31.5073 47.8235 31.3309 53.2206 31.3309 53.2206C31.3309 53.2206 34.0735 53.8088 41.0956 53.9265V18.1765L37.0809 17.375Z" fill="#03C0FF"/>
    <path d="M37.6619 16.5889L44.4119 16.4492L41.7942 27.7654L39.6471 27.4125L37.6619 16.5889Z" fill="#03C0FF"/>
    <path d="M38.4338 14.3828L38.1985 15.8681C38.1985 15.8681 39.7647 17.6255 41.0955 17.6255V14.6549L38.4338 14.3828Z" fill="#F8BE86"/>
    <path d="M43.7502 14.3828L43.9854 15.8681C43.9854 15.8681 42.4193 17.6255 41.0884 17.6255V14.6549L43.7502 14.3828Z" fill="#F8BE86"/>
    <g opacity="0.3">
      <path d="M38.4338 14.3828L38.1985 15.8681C38.1985 15.8681 39.7647 17.6255 41.0955 17.6255V14.6549L38.4338 14.3828Z" fill="#F8BE86"/>
    </g>
    <g opacity="0.3">
      <path d="M43.7502 14.3828L43.9854 15.8681C43.9854 15.8681 42.4193 17.6255 41.0884 17.6255V14.6549L43.7502 14.3828Z" fill="#F8BE86"/>
    </g>
    <path d="M41.0882 17.6324C41.0882 17.6324 39.0735 16.8309 38.1911 15.875L37.0735 17.3824C37.0735 17.3824 38.5956 19.6691 40.0661 20.4926L41.0882 17.6324Z" fill="#EDDCC6"/>
    <path d="M41.0884 17.6324C41.0884 17.6324 43.1031 16.8309 43.9854 15.875L45.1031 17.3824C45.1031 17.3824 43.5737 19.6691 42.1104 20.4926L41.0884 17.6324Z" fill="#EDDCC6"/>
    <path d="M41.0734 8.9267V16.1399C41.0734 16.1399 40.1322 16.2576 39.2572 15.6694C38.3749 15.0811 37.3822 13.4488 37.2646 12.537C37.1469 11.6252 36.4999 11.8017 36.4999 11.2723C36.4999 10.7429 36.1469 9.10317 36.4999 9.162C36.8528 9.22082 37.0293 9.57376 37.0293 9.57376C37.0293 9.57376 36.6175 7.287 36.9116 6.63994C37.2058 5.99288 37.794 3.37523 41.0734 3.31641V8.9267Z" fill="#F8BE86"/>
    <path d="M41.0735 8.9267V16.1399C41.0735 16.1399 42.0147 16.2576 42.8897 15.6694C43.7721 15.0811 44.7647 13.4488 44.8823 12.537C45 11.6252 45.6471 11.8017 45.6471 11.2723C45.6471 10.7429 46 9.10317 45.6471 9.162C45.2941 9.22082 45.1176 9.57376 45.1176 9.57376C45.1176 9.57376 45.5294 7.287 45.2353 6.63994C44.9412 5.99288 44.3529 3.37523 41.0662 3.31641V8.9267H41.0735Z" fill="#F8BE86"/>
    <path d="M36.6618 39.1104L35.3604 53.6912C35.6912 53.7133 36.0515 53.7427 36.4265 53.7648L36.6618 39.1104Z" fill="#EDDCC6"/>
    <path d="M41.5439 3.3457C44.4116 3.63247 45.2351 5.36041 45.3454 6.02217C45.6395 7.77217 45.1248 9.57365 45.1248 9.57365C44.4189 9.32365 43.9042 7.28688 43.441 5.706C42.9557 4.03688 42.5072 3.54423 41.5439 3.3457Z" fill="#9C9991"/>
    <path d="M44.4117 6.46347C44.4117 6.46347 43.772 5.08847 43.5514 4.07376C42.9632 3.64729 42.1764 3.33847 41.0735 3.31641C39.6985 3.33847 38.8014 3.81641 38.1985 4.40464V6.96347C38.1985 6.96347 38.9705 8.08111 41.0735 8.10317C43.1764 8.13258 44.4117 6.46347 44.4117 6.46347Z" fill="#9C9991"/>
    <path d="M44.4119 8.69135C44.4927 10.0222 44.4119 10.9046 44.4119 10.9046L45.0957 10.5884L45.3383 7.41194L44.4119 6.45605V8.69135Z" fill="#9C9991"/>
    <path d="M40.603 3.3457C37.7353 3.63247 36.9118 5.36041 36.8015 6.02217C36.5074 7.77217 37.0221 9.57365 37.0221 9.57365C37.7279 9.32365 38.25 7.28688 38.7059 5.706C39.1912 4.03688 39.6397 3.54423 40.603 3.3457Z" fill="#9C9991"/>
    <path d="M37.728 8.69135C37.6471 10.0222 37.728 10.9046 37.728 10.9046L37.0442 10.5884L36.8015 7.41194L37.728 6.45605V8.69135Z" fill="#9C9991"/>
    <g opacity="0.5">
      <path d="M50.1619 46.1252C50.0516 45.0223 49.8531 40.3679 49.7575 36.3164C49.1619 37.8385 45.9119 42.1988 45.1031 44.1032C44.5442 45.412 42.5148 46.1767 41.0957 46.5664V47.2282L50.3678 49.3899C50.3016 48.1179 50.2354 46.8458 50.1619 46.1252Z" fill="#EDDCC6"/>
    </g>
    <path d="M50.8532 19.4932C53.0517 21.5593 55.7502 32.1843 56.4488 34.3902C57.1473 36.5961 50.3385 46.199 50.3385 46.199C50.3385 46.199 48.9047 47.1917 45.9561 45.052C45.8458 44.9711 45.8091 44.824 45.8752 44.7064C46.6767 43.3314 51.3532 35.2726 51.1399 34.5299C50.912 33.7211 48.5297 26.8902 48.5297 26.8902L50.8532 19.4932Z" fill="#03C0FF"/>
    <g opacity="0.5">
      <path d="M41.0883 47.2354V46.5736C39.6692 46.1839 37.6324 45.4192 37.081 44.1104C36.1986 42.0442 32.4266 37.0515 32.3236 35.9854C32.1251 40.0662 31.7942 44.8824 31.6839 46.0148C31.6104 46.7648 31.5369 48.1324 31.478 49.478L41.0883 47.2354Z" fill="#EDDCC6"/>
    </g>
    <path d="M47.6838 27.7646H44.2573V28.7352H47.6838V27.7646Z" fill="black"/>
    <path d="M31.3309 19.4932C29.125 21.5593 26.4339 32.1843 25.7354 34.3902C25.0368 36.5961 31.8456 46.199 31.8456 46.199C31.8456 46.199 33.2795 47.1917 36.228 45.052C36.3383 44.9711 36.375 44.824 36.3089 44.7064C35.5074 43.3314 30.8309 35.2726 31.0442 34.5299C31.2795 33.7211 33.6545 26.8902 33.6545 26.8902L31.3309 19.4932Z" fill="#03C0FF"/>
    <path d="M65.8236 48.3896C66.8383 48.6176 70.8751 49.4485 71.6619 49.3455C74.2575 49.022 75.1545 48.4117 79.6619 48.7794C84.1619 49.1544 86.4633 50.9558 88.1692 50.2132C89.1177 49.8014 89.2207 49.5514 89.956 49.6911C90.4339 49.7794 96.1545 53.0955 93.5663 53.5955C92.1178 53.8749 71.956 53.8896 70.4633 53.7352C68.9707 53.5882 64.2869 53.9411 64.2869 53.9411L65.8236 48.3896Z" fill="#F8BE86"/>
    <g opacity="0.3">
      <path d="M65.8236 48.3896C66.8383 48.6176 70.8751 49.4485 71.6619 49.3455C74.2575 49.022 75.1545 48.4117 79.6619 48.7794C84.1619 49.1544 86.4633 50.9558 88.1692 50.2132C89.1177 49.8014 89.2207 49.5514 89.956 49.6911C90.4339 49.7794 96.1545 53.0955 93.5663 53.5955C92.1178 53.8749 71.956 53.8896 70.4633 53.7352C68.9707 53.5882 64.2869 53.9411 64.2869 53.9411L65.8236 48.3896Z" fill="#F8BE86"/>
    </g>
    <path d="M66.9561 48.6621C67.9708 48.8901 72.0075 49.7209 72.7943 49.618C75.3899 49.2945 76.2869 48.6842 80.7943 49.0518C85.2943 49.4268 87.5958 51.2283 89.3016 50.4856C90.2502 50.0739 90.3531 49.8239 91.0884 49.9636C91.5663 50.0518 97.2869 53.368 94.6987 53.868C93.2502 54.1474 72.5075 54.5518 71.0149 54.3974C69.5222 54.2503 64.3311 54.0518 64.3311 54.0518L66.9561 48.6621Z" fill="#F8BE86"/>
    <path d="M22.1247 54.7507C22.1247 54.7507 22.2571 54.1478 21.8821 53.9346L22.2571 54.0302C22.2571 54.0228 22.3306 54.3978 22.1247 54.7507Z" fill="#45383C"/>
    <path d="M18.8086 52.8308C19.0733 53.3308 19.9557 53.9411 20.7424 54.1322C21.5365 54.3234 21.6027 54.2719 21.8821 54.1837C22.3527 54.0367 22.6762 54.5219 22.9115 54.7867C23.2865 55.1911 23.5586 55.669 23.9042 55.1837C24.2939 54.6396 24.5145 54.8528 24.6468 55.0661C24.7498 55.2131 25.0365 55.0072 25.1248 54.9411C25.1248 54.9411 25.3527 55.2646 25.5586 55.1102C25.7645 54.9484 25.7718 54.7352 25.941 54.7499C26.1101 54.7646 26.7498 55.044 27.0218 54.7719C27.3013 54.4999 27.2424 53.6543 27.2792 53.2205C27.3086 52.8528 27.5806 52.1911 28.0145 51.8381C28.2424 51.647 28.5807 52.0072 28.7865 51.8455C29.7939 51.0367 30.1615 49.9411 28.5292 48.3896C27.9115 47.8014 26.0807 48.3749 26.0292 48.419C25.9704 48.4631 21.3968 50.9117 21.3968 50.9117L18.8086 52.8308Z" fill="#F8BE86"/>
    <path d="M27.1469 46.5149C27.1469 46.5149 27.4042 48.1693 28.1248 48.184C29.3307 48.2061 31.4116 47.7208 31.4998 47.3678C31.6395 46.7943 36.0072 56.1987 34.3601 54.9708C33.0513 54.0002 31.4484 53.0149 29.919 52.2869C29.669 52.1693 29.213 51.6987 28.7719 51.8237C25.713 52.7355 20.066 53.0884 20.066 53.0884L19.0439 50.6472C19.0439 50.6472 22.8307 44.9634 22.8381 45.1031C22.8528 45.2428 27.1469 46.5149 27.1469 46.5149Z" fill="#F8BE86"/>
    <path d="M27.2865 53.2132C27.2865 53.2132 27.5806 51.2794 30.2571 52.4779C32.9335 53.6765 30.11 48.625 30.11 48.625L26.5732 51.1471L27.2865 53.2132Z" fill="#F8BE86"/>
    <path d="M19.0513 53.1621C18.3896 53.0371 16.7205 51.1989 16.8675 48.7871C17.0146 46.3754 17.7646 45.0665 20.8896 44.2504C22.2204 43.9048 24.6543 44.1989 25.7866 45.0371C26.8381 45.8092 26.9484 46.2798 27.7499 47.2724C28.2278 47.868 28.8013 48.1548 28.8013 48.1548C28.6763 48.5813 26.3234 49.8901 25.5513 49.7283C25.4116 49.6989 26.1837 49.2504 25.5587 49.118C24.7866 48.9489 24.4631 48.3312 24.4631 48.3312C24.4631 48.3312 24.0293 47.9268 23.4263 48.1548C22.8234 48.3827 22.8454 49.1548 23.0072 49.3533C23.169 49.5518 23.419 49.8092 23.419 49.8092C23.419 49.8092 22.9116 50.4783 22.4925 50.5077C22.0734 50.5371 21.3602 50.3754 21.1396 50.8165C20.919 51.2577 20.6322 51.8312 20.0219 52.3974C19.4043 52.9636 19.0513 53.1621 19.0513 53.1621Z" fill="black"/>
    <g opacity="0.3">
      <path d="M25.9924 50.4342C27.2351 50.3974 28.1836 52.1695 28.1836 52.1768C27.5071 52.3974 27.3233 53.015 27.2939 53.1768C27.2939 53.1915 27.2866 53.2062 27.2866 53.2136C27.2792 53.3092 27.2719 53.4268 27.2719 53.5518C27.3822 50.743 26.1542 50.4636 25.9924 50.4342Z" fill="#F8BE86"/>
    </g>
    <path d="M28.5588 48.3159C28.5588 48.3159 30.8603 51.5217 31.0221 52.5217C31.0221 52.5217 34.9044 55.5585 36.4118 56.2276C38.2132 57.0291 40 56.0585 41.3677 55.0291C42.7427 53.9997 49.0294 55.3011 49.0294 55.3011C50.6177 54.7497 53.7941 45.8085 52.6029 45.9041C52.0074 45.9482 48.2721 47.6394 46.5368 47.5806C44.5 47.5144 38.9632 46.36 37.9632 46.1761C36.1103 45.8306 33.228 45.3526 28.5588 48.3159Z" fill="#F8BE86"/>
    <path d="M17.8086 52.0516C17.8086 52.0516 17.5292 53.4192 19.3527 54.206C21.1836 54.9928 21.2424 51.3825 23.1027 51.6251C23.1027 51.6251 22.6909 50.4486 21.1468 50.8163C19.6027 51.1839 17.8086 52.0516 17.8086 52.0516Z" fill="black"/>
    <path d="M16.4778 45.6692C17.0292 46.5295 18.4484 46.6471 19.6469 45.9412C20.8454 45.2353 21.3675 43.9633 20.816 43.1103C20.2646 42.2501 18.8454 42.1324 17.6469 42.8383C16.4484 43.5442 15.9263 44.8089 16.4778 45.6692Z" fill="black"/>
    <path d="M16.8381 57.6104L21.3528 93.1618H33.1617L39.8308 75.5589H75.9852L85.4484 93.1618H91.4705L94.6984 58.6839L16.8381 57.6104Z" fill="#B7BBBF"/>
    <g opacity="0.1">
      <path d="M37.6619 58.5956C37.6619 58.353 37.6177 58.1177 37.5516 57.8971L17.0663 57.6104C17.0001 57.7648 16.9486 57.9192 16.9119 58.0883L17.5442 62.2354C17.9927 62.7059 18.6251 63.0074 19.331 63.0074H35.1986C36.5589 63.0074 37.6692 61.9045 37.6692 60.5368C37.6692 61.8971 38.7722 63.0074 40.1398 63.0074H94.2207L94.706 58.6839L37.7795 57.8971C37.706 58.1251 37.6619 58.353 37.6619 58.5956Z" fill="#BA691B"/>
    </g>
    <path d="M33.8531 61.0513H16.7575C15.7354 61.0513 14.9045 60.2204 14.9045 59.1984V56.0219C14.9045 54.9998 15.7354 54.1689 16.7575 54.1689H33.8531C34.8751 54.1689 35.706 54.9998 35.706 56.0219V59.1984C35.706 60.2204 34.8751 61.0513 33.8531 61.0513Z" fill="#EDDCC6"/>
    <g opacity="0.5">
      <path d="M33.2352 60.0731H17.3676C16.0073 60.0731 14.897 58.9702 14.897 57.6025V58.5805C14.897 59.9408 15.9999 61.0511 17.3676 61.0511H33.2352C34.5955 61.0511 35.7058 59.9481 35.7058 58.5805V57.6025C35.7058 58.9702 34.5955 60.0731 33.2352 60.0731Z" fill="#EDDCC6"/>
    </g>
    <path d="M95.3016 61.0513H37.559C36.5369 61.0513 35.7061 60.2204 35.7061 59.1984V56.0219C35.7061 54.9998 36.5369 54.1689 37.559 54.1689H95.3016C96.3237 54.1689 97.1546 54.9998 97.1546 56.0219V59.1984C97.1546 60.2204 96.3237 61.0513 95.3016 61.0513Z" fill="#EDDCC6"/>
    <g opacity="0.5">
      <path d="M94.6914 60.0731H38.1766C36.8163 60.0731 35.7061 58.9702 35.7061 57.6025V58.5805C35.7061 59.9408 36.809 61.0511 38.1766 61.0511H94.6914C96.0516 61.0511 97.1619 59.9481 97.1619 58.5805V57.6025C97.1546 58.9702 96.0516 60.0731 94.6914 60.0731Z" fill="#EDDCC6"/>
    </g>
    <path d="M69.0512 54.265C68.3821 52.0371 68.5145 50.1253 68.6983 49.0297C68.5806 49.0077 68.4556 48.9856 68.3453 48.9562C67.985 48.618 66.6247 48.3827 64.3233 47.493C62.5218 46.8018 60.7498 45.7136 58.2277 45.1841C55.3821 44.5812 53.3233 45.1033 52.11 45.5959C51.6983 45.765 47.6689 47.6253 46.5292 47.5812C46.0218 48.3533 46.5586 49.3238 46.5292 52.6915C46.5218 53.5812 46.4483 54.7797 46.338 56.0665C46.0439 59.6547 45.5144 63.9488 45.6247 64.243C45.7792 64.6474 52.6468 65.0297 55.0512 64.3238C57.6468 63.5591 63.7645 64.14 65.7792 64.515C67.7939 64.89 68.6836 64.7062 69.088 64.515C69.4997 64.3238 70.11 57.765 69.0512 54.265Z" fill="#25D366"/>
    <g opacity="0.3">
      <path d="M47.1101 63.1761C46.9115 63.9555 48.191 53.9702 50.2204 53.9335C52.2498 53.8967 56.1615 53.3452 56.4851 53.1614C56.8086 52.9776 64.963 53.4776 65.3748 53.5511C65.7792 53.632 67.0071 54.985 67.1689 57.61C67.3307 60.235 67.6616 62.5217 67.9851 63.1688C67.9851 63.1688 65.7866 59.6173 65.4557 57.6026C65.1321 55.5879 63.9851 54.6982 61.9483 55.3894C59.9116 56.0805 55.2645 55.11 54.2865 55.3894C53.3086 55.6761 49.7204 53.0658 47.1101 63.1761Z" fill="#6DDBDC"/>
    </g>
    <path d="M31.2722 51.9849C31.0663 49.2937 32.8531 48.654 37.3163 49.2717C41.7796 49.8967 45.6398 50.5511 45.6398 50.5511L45.0369 54.0143L36.809 54.0805C36.809 54.0805 31.4193 53.9775 31.2722 51.9849Z" fill="#F8BE86"/>
    <path d="M45.6325 50.5509C47.8678 50.3524 48.7795 50.8082 50.9119 51.22C52.7281 51.573 56.8457 52.6906 57.7354 52.1097C58.6251 51.5288 60.0222 50.4774 61.1472 50.5215C62.2722 50.5582 65.184 51.2494 64.081 51.4627C62.9781 51.6832 60.2501 52.3082 60.0663 52.7862C59.8898 53.2641 61.456 52.8229 61.6986 53.2053C61.9413 53.5803 60.5884 53.4994 59.6104 53.7862C58.6325 54.0729 58.4707 54.0656 57.3457 53.8671C56.2207 53.6685 50.0516 53.9406 48.4487 54.1465C47.1692 54.3082 45.0295 54.0068 45.0295 54.0068L45.6325 50.5509Z" fill="#F8BE86"/>
    <g opacity="0.3">
      <path d="M31.2722 51.9849C31.0663 49.2937 32.8531 48.654 37.3163 49.2717C41.7796 49.8967 45.6398 50.5511 45.6398 50.5511L45.0369 54.0143L36.809 54.0805C36.809 54.0805 31.4193 53.9775 31.2722 51.9849Z" fill="#F8BE86"/>
      <path d="M45.6325 50.5509C47.8678 50.3524 48.7795 50.8082 50.9119 51.22C52.7281 51.573 56.8457 52.6906 57.7354 52.1097C58.6251 51.5288 60.0222 50.4774 61.1472 50.5215C62.2722 50.5582 65.184 51.2494 64.081 51.4627C62.9781 51.6832 60.2501 52.3082 60.0663 52.7862C59.8898 53.2641 61.456 52.8229 61.6986 53.2053C61.9413 53.5803 60.5884 53.4994 59.6104 53.7862C58.6325 54.0729 58.4707 54.0656 57.3457 53.8671C56.2207 53.6685 50.0516 53.9406 48.4487 54.1465C47.1692 54.3082 45.0295 54.0068 45.0295 54.0068L45.6325 50.5509Z" fill="#F8BE86"/>
    </g>
    <path d="M46.5219 45.2207C45.2131 45.7501 44.9704 46.4854 43.6837 46.7722C42.3969 47.0589 44.1543 47.5442 44.794 47.1692C44.9999 47.0516 45.8013 46.956 46.3234 47.1104C47.4116 47.4413 48.6249 48.2354 49.9999 48.4707C51.544 48.7354 52.9263 48.3898 52.7205 47.9339C52.5146 47.4781 49.169 46.7722 49.3896 46.2354C49.6249 45.6986 46.5219 45.2207 46.5219 45.2207Z" fill="#F8BE86"/>
    <path d="M35.6547 45.2207C36.9635 45.7501 37.2062 46.4854 38.4856 46.7722C39.7723 47.0589 38.015 47.5442 37.3753 47.1692C37.1694 47.0516 36.3679 46.956 35.8459 47.1104C34.7576 47.4413 33.5444 48.2354 32.1694 48.4707C30.6326 48.7354 29.2429 48.3898 29.4488 47.9339C29.6547 47.4781 33.0003 46.7722 32.7797 46.2354C32.5591 45.6986 35.6547 45.2207 35.6547 45.2207Z" fill="#F8BE86"/>
    <g opacity="0.5">
      <path d="M46.5219 45.2207C45.2131 45.7501 44.9704 46.4854 43.6837 46.7722C42.3969 47.0589 44.1543 47.5442 44.794 47.1692C44.9999 47.0516 45.8013 46.956 46.3234 47.1104C47.4116 47.4413 48.6249 48.2354 49.9999 48.4707C51.544 48.7354 52.9263 48.3898 52.7205 47.9339C52.5146 47.4781 49.169 46.7722 49.3896 46.2354C49.6249 45.6986 46.5219 45.2207 46.5219 45.2207Z" fill="#F8BE86"/>
    </g>
    <g opacity="0.5">
      <path d="M35.6547 45.2207C36.9635 45.7501 37.2062 46.4854 38.4856 46.7722C39.7723 47.0589 38.015 47.5442 37.3753 47.1692C37.1694 47.0516 36.3679 46.956 35.8459 47.1104C34.7576 47.4413 33.5444 48.2354 32.1694 48.4707C30.6326 48.7354 29.2429 48.3898 29.4488 47.9339C29.6547 47.4781 33.0003 46.7722 32.7797 46.2354C32.5591 45.6986 35.6547 45.2207 35.6547 45.2207Z" fill="#F8BE86"/>
    </g>
    <path d="M30.9706 41.4116C31.9044 41.0954 32.9338 40.816 33.7941 40.2939C34.8823 42.2645 35.9632 44.1175 36.3088 44.7131C36.375 44.8307 36.3382 44.9778 36.2279 45.0587C33.2794 47.191 31.8456 46.2057 31.8456 46.2057C31.8456 46.2057 30.5441 44.3675 29.1323 42.1101C29.7426 41.8528 30.3603 41.6175 30.9706 41.4116Z" fill="#03C0FF"/>
    <path d="M51.2057 41.4116C50.2718 41.0954 49.2424 40.816 48.3821 40.2939C47.2939 42.2645 46.213 44.1175 45.8674 44.7131C45.8013 44.8307 45.838 44.9778 45.9483 45.0587C48.8969 47.191 50.3307 46.2057 50.3307 46.2057C50.3307 46.2057 51.6321 44.3675 53.0439 42.1101C52.441 41.8528 51.8233 41.6175 51.2057 41.4116Z" fill="#03C0FF"/>
  </g>
  <path opacity="0.2" d="M17.9884 74.1302C14.9791 74.0606 11.6204 73.6985 9.63883 71.352C7.4087 68.713 7.82517 64.6744 6.44141 61.4783C4.98376 58.1151 1.6184 55.887 0.442878 52.4054C-0.866991 48.52 0.926522 44.2447 3.23727 40.8955C5.54801 37.5462 8.44988 34.5173 9.77318 30.6319C11.0562 26.8649 10.7069 22.7288 11.3585 18.7877C12.9504 9.12298 21.2799 1.09456 30.6908 0.14062C34.607 -0.256275 38.7515 0.530563 41.9019 2.98156C47.1145 7.04103 48.767 14.8049 54.2013 18.544C59.3333 22.0813 66.3394 20.9881 71.8207 23.9125C76.1265 26.2104 79.0552 31.0427 79.1895 36.0561C79.3037 40.5055 77.396 44.9201 78.1416 49.3069C78.5648 51.8136 79.8277 54.0835 80.5531 56.5137C81.91 61.0745 81.2652 66.2271 78.8268 70.2727C76.3884 74.3182 72.2036 77.187 67.656 77.9251C59.0041 79.3316 51.1919 73.7542 42.8088 72.7724C38.2209 72.2362 34.5532 74.8195 30.2206 74.7778C26.2036 74.736 22.0524 74.2207 17.9884 74.1302Z" fill="url(#paint0_linear_3170_13931)"/>
  <path d="M76.1108 39.8289C74.0099 37.3171 71.1477 35.2427 68.3635 33.5228C65.5479 31.7847 62.4447 30.2322 59.1977 29.3979C59.0661 29.3632 58.9737 29.552 59.1079 29.6016C62.3032 30.8387 65.4022 32.0987 68.3037 33.9149C71.115 35.6818 73.4458 37.8406 75.9043 40.0288C76.0227 40.1496 76.2142 39.9528 76.1108 39.8289Z" fill="#262626"/>
  <path d="M76.9856 48.6417C75.4994 46.3959 73.2849 44.4355 71.1735 42.7937C68.9924 41.0952 66.6179 39.671 64.0548 38.5852C63.9398 38.5378 63.8695 38.7097 63.9735 38.7656C66.4267 39.9944 68.7765 41.4205 70.9191 43.1146C73.0876 44.8312 74.8177 46.857 76.7033 48.8571C76.8503 49.0153 77.1035 48.8305 76.9856 48.6417Z" fill="#262626"/>
  <defs>
    <linearGradient id="paint0_linear_3170_13931" x1="-8.0031e-07" y1="7.36561" x2="79.8369" y2="105.223" gradientUnits="userSpaceOnUse">
      <stop stop-color="#25D366"/>
      <stop offset="1" stop-color="#03C0FF"/>
    </linearGradient>
  </defs>
</svg>