<svg xmlns="http://www.w3.org/2000/svg" width="26" height="25" viewBox="0 0 26 25" fill="none">
  <path d="M16.5685 12.6176L16.5685 12.6176L24.1187 11.6137V11.4887H24.1187H18.033L17.0836 8.64859L17.0835 8.64852C16.9667 8.29979 16.6387 8.06381 16.268 8.05714C15.8872 8.04147 15.5574 8.28058 15.4303 8.62237L15.4303 8.62245L13.4819 13.8745L12.5952 10.9238C12.499 10.6035 12.2234 10.3684 11.8904 10.3174L11.8903 10.3173C11.5604 10.2672 11.2233 10.408 11.0325 10.6838L11.0324 10.6838L10.0896 12.0474L9.29383 9.36832L9.174 9.40391L9.29382 9.36832C9.19441 9.03364 8.90016 8.79229 8.54995 8.75439L8.54975 8.75437C8.19759 8.71683 7.85954 8.88867 7.68807 9.19334L7.68803 9.19341L6.39811 11.4887H1.75C1.26906 11.4887 0.875 11.8715 0.875 12.349C0.875 12.8265 1.26906 13.2093 1.75 13.2093H6.91425C7.23177 13.2093 7.52564 13.0401 7.68021 12.7652L7.68023 12.7651L8.20304 11.8347L8.92989 14.2813C9.02496 14.6023 9.3003 14.8386 9.6339 14.8902C9.96642 14.9417 10.3026 14.7999 10.4933 14.524C10.4933 14.524 10.4933 14.524 10.4933 14.524L11.4406 13.1541L12.5555 16.8641C12.5555 16.8641 12.5555 16.8641 12.5555 16.8642C12.6629 17.2216 12.9913 17.4686 13.3674 17.4803L13.3675 17.4803C13.3779 17.4806 13.3875 17.4806 13.395 17.4806C13.76 17.4806 14.0898 17.2564 14.2167 16.9151L14.2167 16.915L16.2094 11.5438L16.5685 12.6176ZM13.1325 22.4378L13.1323 22.4379C13.1219 22.4435 13.1073 22.443 13.0985 22.4383L13.098 22.438C8.90672 20.2203 5.93283 17.5384 4.24552 14.4716L4.24547 14.4715C4.01504 14.0535 3.48564 13.8988 3.06129 14.1233L3.11975 14.2338L3.06128 14.1233C2.63623 14.3483 2.47545 14.8704 2.70622 15.2901L2.70624 15.2902C4.56522 18.6684 7.78653 21.5813 12.269 23.9531L12.2691 23.9532C12.5284 24.0902 12.821 24.1625 13.115 24.1625C13.409 24.1625 13.7016 24.0902 13.9612 23.9529L13.9612 23.9529C18.4432 21.5816 21.6645 18.6689 23.5235 15.2904L23.5235 15.2904C23.7543 14.8707 23.5935 14.3486 23.1685 14.1236C22.7439 13.8985 22.2144 14.0535 21.9842 14.4718C20.2967 17.5384 17.323 20.2203 13.1325 22.4378ZM17.8085 2.1897C15.9768 2.1897 14.3443 2.873 13.115 4.13633L1.10603 9.74264L1.231 9.73994L1.10603 9.74276L1.10603 9.74269C1.11637 10.2211 1.52611 10.592 1.99878 10.5843L1.99941 10.5843C2.48005 10.574 2.86605 10.1829 2.85547 9.70555L2.85546 9.70506L2.85475 9.67802C2.85557 6.43853 5.3034 3.91029 8.42125 3.91029C10.5066 3.91029 11.7304 5.03589 12.394 5.98533L12.3941 5.9854C12.5578 6.21929 12.8275 6.35833 13.1152 6.35833C13.403 6.35833 13.6727 6.21929 13.8364 5.9854L13.8365 5.98533C14.5001 5.03589 15.7239 3.91029 17.809 3.91029C20.9266 3.91029 23.3743 6.43887 23.3752 9.66309L23.3743 9.70808L23.3743 9.70816C23.3643 10.1857 23.75 10.5763 24.2312 10.5862V10.5863H24.2337H24.2338H24.2338H24.2338H24.2339H24.2339H24.2339H24.234H24.234H24.234H24.2341H24.2341H24.2341H24.2341H24.2342H24.2342H24.2342H24.2343H24.2343H24.2343H24.2344H24.2344H24.2344H24.2345H24.2345H24.2345H24.2345H24.2346H24.2346H24.2346H24.2347H24.2347H24.2347H24.2348H24.2348H24.2348H24.2349H24.2349H24.2349H24.2349H24.235H24.235H24.235H24.2351H24.2351H24.2351H24.2352H24.2352H24.2352H24.2353H24.2353H24.2353H24.2353H24.2354H24.2354H24.2354H24.2355H24.2355H24.2355H24.2356H24.2356H24.2356H24.2357H24.2357H24.2357H24.2357H24.2358H24.2358H24.2358H24.2359H24.2359H24.2359H24.236H24.236H24.236H24.2361H24.2361H24.2361H24.2361H24.2362H24.2362H24.2362H24.2363H24.2363H24.2363H24.2364H24.2364H24.2364H24.2365H24.2365H24.2365H24.2365H24.2366H24.2366H24.2366H24.2367H24.2367H24.2367H24.2368H24.2368H24.2368H24.2369H24.2369H24.2369H24.2369H24.237H24.237H24.237H24.2371H24.2371H24.2371H24.2372H24.2372H24.2372H24.2373H24.2373H24.2373H24.2373H24.2374H24.2374H24.2374H24.2375H24.2375H24.2375H24.2376H24.2376H24.2376H24.2377H24.2377H24.2377H24.2377H24.2378H24.2378H24.2378H24.2379H24.2379H24.2379H24.238H24.238H24.238H24.2381H24.2381H24.2381H24.2381H24.2382H24.2382H24.2382H24.2383H24.2383H24.2383H24.2384H24.2384H24.2384H24.2384H24.2385H24.2385H24.2385H24.2386H24.2386H24.2386H24.2387H24.2387H24.2387H24.2388H24.2388H24.2388H24.2388H24.2389H24.2389H24.2389H24.239H24.239H24.239H24.2391H24.2391H24.2391H24.2392H24.2392H24.2392H24.2392H24.2393H24.2393H24.2393H24.2394H24.2394H24.2394H24.2395H24.2395H24.2395H24.2396H24.2396H24.2396H24.2396H24.2397H24.2397H24.2397H24.2398H24.2398H24.2398H24.2399H24.2399H24.2399H24.2399H24.24H24.24H24.24H24.2401H24.2401H24.2401H24.2402H24.2402H24.2402H24.2403H24.2403H24.2403H24.2403H24.2404H24.2404H24.2404H24.2405H24.2405H24.2405H24.2406H24.2406H24.2406H24.2407H24.2407H24.2407H24.2407H24.2408H24.2408H24.2408H24.2409H24.2409H24.2409H24.241H24.241H24.241H24.241H24.2411H24.2411H24.2411H24.2412H24.2412H24.2412H24.2413H24.2413H24.2413H24.2414H24.2414H24.2414H24.2414H24.2415H24.2415H24.2415H24.2416H24.2416H24.2416H24.2417H24.2417H24.2417H24.2417H24.2418H24.2418H24.2418H24.2419H24.2419H24.2419H24.242H24.242H24.242H24.2421H24.2421H24.2421H24.2421H24.2422H24.2422H24.2422H24.2423H24.2423H24.2423H24.2424H24.2424H24.2424H24.2424H24.2425H24.2425H24.2425H24.2426H24.2426H24.2426H24.2427H24.2427H24.2427H24.2427H24.2428H24.2428H24.2428H24.2429H24.2429H24.2429H24.243H24.243H24.243H24.243H24.2431H24.2431H24.2431H24.2432H24.2432H24.2432H24.2433H24.2433H24.2433H24.2434H24.2434H24.2434H24.2434H24.2435H24.2435H24.2435H24.2436H24.2436H24.2436H24.2437H24.2437H24.2437H24.2437H24.2438H24.2438H24.2438H24.2439H24.2439H24.2439H24.244H24.244H24.244H24.244H24.2441H24.2441H24.2441H24.2442H24.2442H24.2442H24.2443H24.2443H24.2443H24.2443H24.2444H24.2444H24.2444H24.2445H24.2445H24.2445H24.2446H24.2446H24.2446H24.2446H24.2447H24.2447H24.2447H24.2448H24.2448H24.2448H24.2449H24.2449H24.2449H24.2449H24.245H24.245H24.245H24.2451H24.2451H24.2451H24.2452H24.2452H24.2452H24.2452H24.2453H24.2453H24.2453H24.2454H24.2454H24.2454H24.2455H24.2455H24.2455H24.2455H24.2456H24.2456H24.2456H24.2457H24.2457H24.2457H24.2458H24.2458H24.2458H24.2458H24.2459H24.2459H24.2459H24.246H24.246H24.246H24.2461H24.2461H24.2461H24.2461H24.2462H24.2462H24.2462H24.2463H24.2463H24.2463H24.2464H24.2464H24.2464H24.2464H24.2465H24.2465H24.2465H24.2466H24.2466H24.2466H24.2467H24.2467H24.2467H24.2467H24.2468H24.2468H24.2468H24.2469H24.2469H24.2469H24.2469H24.247H24.247H24.247H24.2471H24.2471H24.2471H24.2472H24.2472H24.2472H24.2472H24.2473H24.2473H24.2473H24.2474H24.2474H24.2474H24.2475H24.2475H24.2475H24.2475H24.2476H24.2476H24.2476H24.2477H24.2477H24.2477H24.2477H24.2478H24.2478H24.2478H24.2479H24.2479H24.2479H24.248H24.248H24.248H24.248H24.2481H24.2481H24.2481H24.2482H24.2482H24.2482H24.2483H24.2483H24.2483H24.2483H24.2484H24.2484H24.2484H24.2485H24.2485H24.2485H24.2485H24.2486H24.2486H24.2486H24.2487H24.2487H24.2487H24.2488H24.2488H24.2488H24.2488H24.2489H24.2489H24.2489H24.249H24.249H24.249H24.249H24.2491H24.2491H24.2491H24.2492H24.2492H24.2492H24.2493C24.7218 10.5863 25.114 10.2149 25.1237 9.74374V9.74371L25.125 9.68219L25.125 9.68219V9.67965C25.125 5.48353 21.9128 2.1897 17.8085 2.1897Z" fill="#403E3E" stroke="#403E3E" stroke-width="0.25"/>
</svg>