<svg xmlns="http://www.w3.org/2000/svg" width="36" height="30" viewBox="0 0 36 30" fill="none">
  <path d="M24.4777 21.0853L18.2965 14.9041L12.1152 21.0853" stroke="#B7BBBF" stroke-width="1.31076" stroke-linecap="round" stroke-linejoin="round"/>
  <path d="M18.2969 14.9041V28.8119" stroke="#B7BBBF" stroke-width="1.31076" stroke-linecap="round" stroke-linejoin="round"/>
  <path d="M31.2614 24.7785C32.7686 23.9569 33.9592 22.6567 34.6454 21.0831C35.3316 19.5096 35.4742 17.7524 35.0508 16.0888C34.6274 14.4252 33.662 12.95 32.3071 11.896C30.9521 10.842 29.2847 10.2692 27.5681 10.2681H25.621C25.1533 8.45889 24.2815 6.77928 23.0711 5.35552C21.8608 3.93176 20.3435 2.8009 18.6332 2.04795C16.923 1.29501 15.0643 0.93958 13.1969 1.00838C11.3295 1.07719 9.50195 1.56843 7.85173 2.44519C6.20151 3.32194 4.77151 4.5614 3.66926 6.07036C2.567 7.57932 1.82117 9.31853 1.48783 11.1572C1.15449 12.9959 1.24232 14.8863 1.74471 16.6862C2.24711 18.486 3.15099 20.1486 4.38841 21.5488" stroke="#B7BBBF" stroke-width="1.31076" stroke-linecap="round" stroke-linejoin="round"/>
  <path d="M24.4777 21.0853L18.2965 14.9041L12.1152 21.0853" stroke="#B7BBBF" stroke-width="1.31076" stroke-linecap="round" stroke-linejoin="round"/>
</svg>